<svg width="13" height="16" viewBox="0 0 13 16" fill="none" xmlns="http://www.w3.org/2000/svg">
<path d="M1.15279 11.9769L1.15097 11.9755C0.965513 11.8339 0.77339 11.5832 0.626807 11.2791C0.48063 10.976 0.4 10.6618 0.4 10.4153V3.96916C0.4 3.61326 0.533125 3.21794 0.765178 2.87185C0.997456 2.52543 1.30685 2.26094 1.62273 2.13755C1.62288 2.13749 1.62303 2.13743 1.62318 2.13738L5.85343 0.499139C5.85375 0.499018 5.85407 0.498897 5.85439 0.498775C6.01465 0.437936 6.25113 0.4 6.50766 0.4C6.7642 0.4 7.00068 0.437936 7.16093 0.498775C7.16125 0.498897 7.16157 0.499018 7.16189 0.499139L11.3909 2.1369C11.3913 2.13704 11.3916 2.13717 11.3919 2.1373C11.7039 2.26046 12.0113 2.5246 12.2417 2.87074C12.472 3.21669 12.603 3.61112 12.5999 3.96574L12.5999 3.96574V3.96916V10.4153C12.5999 10.6615 12.5195 10.9735 12.3733 11.2758C12.2272 11.578 12.0346 11.8305 11.8465 11.9774C11.8463 11.9776 11.846 11.9778 11.8458 11.978L7.61389 15.2478L7.61281 15.2486C7.32108 15.4756 6.91912 15.6 6.49997 15.6C6.08082 15.6 5.67885 15.4756 5.38713 15.2486L5.38604 15.2478L1.15279 11.9769ZM8.08662 5.09173L5.47244 7.79469L4.92871 7.23249C4.54828 6.83914 3.91822 6.83914 3.5378 7.23249C3.16495 7.618 3.16462 8.24527 3.53681 8.6312C3.53714 8.63154 3.53747 8.63188 3.5378 8.63222L4.76757 9.91966L4.76756 9.91967L4.76929 9.92145C4.96267 10.1214 5.21386 10.2185 5.46474 10.2185C5.71563 10.2185 5.96681 10.1214 6.1602 9.92145L9.46779 6.50154C9.85162 6.11491 9.85048 5.47734 9.47753 5.09173C9.0971 4.69838 8.46704 4.69838 8.08662 5.09173Z" fill="white" stroke="#1E4746" stroke-width="0.8"/>
</svg>
